#define ew_cursor_black_width 16
#define ew_cursor_black_height 16
#define ew_cursor_black_x_hot 7
#define ew_cursor_black_y_hot 8
static unsigned char ew_cursor_black_bits[] = {
   0x00, 0x00, 0x00, 0x00, 0x00, 0x00, 0x00, 0x00, 0x00, 0x00, 0x08, 0x10,
   0x0c, 0x30, 0xfe, 0x7f, 0xff, 0xff, 0xfe, 0x7f, 0x0c, 0x30, 0x08, 0x10,
   0x00, 0x00, 0x00, 0x00, 0x00, 0x00, 0x00, 0x00};
