#define ew_cursor_white_width 16
#define ew_cursor_white_height 16
#define ew_cursor_white_x_hot 7
#define ew_cursor_white_y_hot 8
static unsigned char ew_cursor_white_bits[] = {
   0x00, 0x00, 0x00, 0x00, 0x00, 0x00, 0x00, 0x00, 0x00, 0x00, 0x00, 0x00,
   0x00, 0x00, 0x04, 0x20, 0xfe, 0x7f, 0x04, 0x20, 0x00, 0x00, 0x00, 0x00,
   0x00, 0x00, 0x00, 0x00, 0x00, 0x00, 0x00, 0x00};
