#define ne_cursor_white_width 16
#define ne_cursor_white_height 16
#define ne_cursor_white_x_hot 8
#define ne_cursor_white_y_hot 7
static unsigned char ne_cursor_white_bits[] = {
   0x00, 0x00, 0x00, 0x7e, 0x00, 0x7c, 0x00, 0x7c, 0x00, 0x7e, 0x00, 0x7f,
   0x80, 0x4f, 0xc0, 0x07, 0xe0, 0x03, 0xf2, 0x01, 0xfe, 0x00, 0x7e, 0x00,
   0x3e, 0x00, 0x3e, 0x00, 0x7e, 0x00, 0x00, 0x00};
