#define ne_cursor_black_width 16
#define ne_cursor_black_height 16
#define ne_cursor_black_x_hot 8
#define ne_cursor_black_y_hot 7
static unsigned char ne_cursor_black_bits[] = {
   0x00, 0x00, 0x00, 0x00, 0x00, 0x38, 0x00, 0x38, 0x00, 0x3c, 0x00, 0x0e,
   0x00, 0x07, 0x80, 0x03, 0xc0, 0x01, 0xe0, 0x00, 0x70, 0x00, 0x3c, 0x00,
   0x1c, 0x00, 0x1c, 0x00, 0x00, 0x00, 0x00, 0x00};
