#define nw_cursor_white_width 16
#define nw_cursor_white_height 16
#define nw_cursor_white_x_hot 7
#define nw_cursor_white_y_hot 7
static unsigned char nw_cursor_white_bits[] = {
   0x00, 0x00, 0x7e, 0x00, 0x3e, 0x00, 0x3e, 0x00, 0x7e, 0x00, 0xfe, 0x00,
   0xf2, 0x01, 0xe0, 0x03, 0xc0, 0x07, 0x80, 0x4f, 0x00, 0x7f, 0x00, 0x7e,
   0x00, 0x7c, 0x00, 0x7c, 0x00, 0x7e, 0x00, 0x00};
