#define topbar_width 12
#define topbar_height 12
static unsigned char topbar_bits[] = {
   0x00, 0x00, 0x00, 0x00, 0xfe, 0x03, 0xfe, 0x03, 0x00, 0x00, 0x00, 0x00,
   0x00, 0x00, 0x00, 0x00, 0x00, 0x00, 0x00, 0x00, 0x00, 0x00, 0x00, 0x00 };
