#define wins_width 12
#define wins_height 12
static unsigned char wins_bits[] = {
   0x00, 0x00, 0xf0, 0x03, 0xf0, 0x03, 0x10, 0x02, 0xfc, 0x02, 0xfc, 0x02,
   0x84, 0x03, 0x84, 0x00, 0x84, 0x00, 0xfc, 0x00, 0x00, 0x00, 0x00, 0x00 };
